<svg width="70" height="114" viewBox="0 0 150 204" fill="none" xmlns="http://www.w3.org/2000/svg">
<path fill-rule="evenodd" clip-rule="evenodd" d="M102.935 158.024C98.285 158.024 53.849 156.931 47.889 156.931C37.421 156.931 33.24 149.1 33.24 139.686C33.24 136.322 33.26 129.876 33.391 116.161C33.493 105.678 38.638 98.7124 50.245 98.7124C60.244 98.7124 93.134 99.1107 102.263 99.1107C114.33 99.1107 116.762 107.498 116.762 117.533C116.762 131.119 116.658 137.257 116.658 141.118C116.656 151.058 110.538 158.024 102.935 158.024ZM74.882 104.824C47.362 104.824 45.024 150.812 76.828 150.812C103.643 150.812 102.938 104.824 74.882 104.824ZM80.729 143.213L69.539 142.882L69.662 133.024L59.754 132.918V122.56L69.796 122.287L69.924 112.021L80.267 112.227L80.413 121.998L90.206 121.732L90.515 133.251L80.579 133.143L80.729 143.213ZM84.508 94.4262L84.743 88.0657L66.329 87.7823L66.371 94.0472L57.166 94.5325L56.871 88.6971L67.243 80.0303L84.088 80.2976L93.587 89.4916L93.435 95.0876L84.508 94.4262Z" fill="url(#paint0_linear)"/>
<defs>
<linearGradient id="paint0_linear" x1="38.4601" y1="83.3816" x2="103.7" y2="160.039" gradientUnits="userSpaceOnUse">
<stop offset="0.0385995" stop-color="#FFC955"/>
<stop offset="0.224549" stop-color="#FF7D55"/>
<stop offset="0.410498" stop-color="#FF5578"/>
<stop offset="0.596448" stop-color="#FF54C4"/>
<stop offset="0.782397" stop-color="#ED54FF"/>
<stop offset="0.968347" stop-color="#A154FF"/>
</linearGradient>
</defs>
</svg>
