<svg width="69" height="32" viewBox="0 0 69 32" fill="none" xmlns="http://www.w3.org/2000/svg">
<path fill-rule="evenodd" clip-rule="evenodd" d="M54.3318 23.4779C51.432 21.0627 47.9166 17.8712 48.4134 14.8985C48.9948 11.4105 53.4534 11.0248 55.914 14.0446C59.4024 11.3701 63.0132 13.3322 62.601 16.896C62.2608 19.8484 57.8598 21.9352 54.3318 23.4779Z" fill="url(#paint0_linear)"/>
<path d="M5.70117 19.7734H2.12695L1.32422 22H0.164062L3.42188 13.4688H4.40625L7.66992 22H6.51562L5.70117 19.7734ZM2.4668 18.8477H5.36719L3.91406 14.8574L2.4668 18.8477ZM9.67383 15.6602L9.70898 16.457C10.1934 15.8477 10.8262 15.543 11.6074 15.543C12.9473 15.543 13.623 16.2988 13.6348 17.8105V22H12.5508V17.8047C12.5469 17.3477 12.4414 17.0098 12.2344 16.791C12.0312 16.5723 11.7129 16.4629 11.2793 16.4629C10.9277 16.4629 10.6191 16.5566 10.3535 16.7441C10.0879 16.9316 9.88086 17.1777 9.73242 17.4824V22H8.64844V15.6602H9.67383ZM19.1836 22C19.1211 21.875 19.0703 21.6523 19.0312 21.332C18.5273 21.8555 17.9258 22.1172 17.2266 22.1172C16.6016 22.1172 16.0879 21.9414 15.6855 21.5898C15.2871 21.2344 15.0879 20.7852 15.0879 20.2422C15.0879 19.582 15.3379 19.0703 15.8379 18.707C16.3418 18.3398 17.0488 18.1562 17.959 18.1562H19.0137V17.6582C19.0137 17.2793 18.9004 16.9785 18.6738 16.7559C18.4473 16.5293 18.1133 16.416 17.6719 16.416C17.2852 16.416 16.9609 16.5137 16.6992 16.709C16.4375 16.9043 16.3066 17.1406 16.3066 17.418H15.2168C15.2168 17.1016 15.3281 16.7969 15.5508 16.5039C15.7773 16.207 16.082 15.9727 16.4648 15.8008C16.8516 15.6289 17.2754 15.543 17.7363 15.543C18.4668 15.543 19.0391 15.7266 19.4531 16.0938C19.8672 16.457 20.082 16.959 20.0977 17.5996V20.5176C20.0977 21.0996 20.1719 21.5625 20.3203 21.9062V22H19.1836ZM17.3848 21.1738C17.7246 21.1738 18.0469 21.0859 18.3516 20.9102C18.6562 20.7344 18.877 20.5059 19.0137 20.2246V18.9238H18.1641C16.8359 18.9238 16.1719 19.3125 16.1719 20.0898C16.1719 20.4297 16.2852 20.6953 16.5117 20.8867C16.7383 21.0781 17.0293 21.1738 17.3848 21.1738ZM22.9746 22H21.8906V13H22.9746V22ZM26.7891 20.4121L28.2656 15.6602H29.4258L26.877 22.9785C26.4824 24.0332 25.8555 24.5605 24.9961 24.5605L24.791 24.543L24.3867 24.4668V23.5879L24.6797 23.6113C25.0469 23.6113 25.332 23.5371 25.5352 23.3887C25.7422 23.2402 25.9121 22.9688 26.0449 22.5742L26.2852 21.9297L24.0234 15.6602H25.207L26.7891 20.4121ZM31.5762 22H30.4922V13H31.5762V22ZM37.2305 22C37.168 21.875 37.1172 21.6523 37.0781 21.332C36.5742 21.8555 35.9727 22.1172 35.2734 22.1172C34.6484 22.1172 34.1348 21.9414 33.7324 21.5898C33.334 21.2344 33.1348 20.7852 33.1348 20.2422C33.1348 19.582 33.3848 19.0703 33.8848 18.707C34.3887 18.3398 35.0957 18.1562 36.0059 18.1562H37.0605V17.6582C37.0605 17.2793 36.9473 16.9785 36.7207 16.7559C36.4941 16.5293 36.1602 16.416 35.7188 16.416C35.332 16.416 35.0078 16.5137 34.7461 16.709C34.4844 16.9043 34.3535 17.1406 34.3535 17.418H33.2637C33.2637 17.1016 33.375 16.7969 33.5977 16.5039C33.8242 16.207 34.1289 15.9727 34.5117 15.8008C34.8984 15.6289 35.3223 15.543 35.7832 15.543C36.5137 15.543 37.0859 15.7266 37.5 16.0938C37.9141 16.457 38.1289 16.959 38.1445 17.5996V20.5176C38.1445 21.0996 38.2188 21.5625 38.3672 21.9062V22H37.2305ZM35.4316 21.1738C35.7715 21.1738 36.0938 21.0859 36.3984 20.9102C36.7031 20.7344 36.9238 20.5059 37.0605 20.2246V18.9238H36.2109C34.8828 18.9238 34.2188 19.3125 34.2188 20.0898C34.2188 20.4297 34.332 20.6953 34.5586 20.8867C34.7852 21.0781 35.0762 21.1738 35.4316 21.1738ZM45.2109 18.9004C45.2109 19.8691 44.9883 20.6484 44.543 21.2383C44.0977 21.8242 43.5 22.1172 42.75 22.1172C41.9492 22.1172 41.3301 21.834 40.8926 21.2676L40.8398 22H39.8438V13H40.9277V16.3574C41.3652 15.8145 41.9688 15.543 42.7383 15.543C43.5078 15.543 44.1113 15.834 44.5488 16.416C44.9902 16.998 45.2109 17.7949 45.2109 18.8066V18.9004ZM44.127 18.7773C44.127 18.0391 43.9844 17.4688 43.6992 17.0664C43.4141 16.6641 43.0039 16.4629 42.4688 16.4629C41.7539 16.4629 41.2402 16.7949 40.9277 17.459V20.2012C41.2598 20.8652 41.7773 21.1973 42.4805 21.1973C43 21.1973 43.4043 20.9961 43.6934 20.5938C43.9824 20.1914 44.127 19.5859 44.127 18.7773Z" fill="black"/>
<defs>
<linearGradient id="paint0_linear" x1="49.2578" y1="12.5019" x2="58.5242" y2="25.15" gradientUnits="userSpaceOnUse">
<stop offset="0.0385995" stop-color="#FFC955"/>
<stop offset="0.224549" stop-color="#FF7D55"/>
<stop offset="0.410498" stop-color="#FF5578"/>
<stop offset="0.596448" stop-color="#FF54C4"/>
<stop offset="0.703125" stop-color="#F554E6"/>
<stop offset="0.782397" stop-color="#ED54FF"/>
<stop offset="0.968347" stop-color="#A154FF"/>
</linearGradient>
</defs>
</svg>
